<svg xmlns="http://www.w3.org/2000/svg" viewBox="0 0 250 260">
<defs><filter id="s"><feDropShadow dx="0" dy="5" stdDeviation="5" flood-color="#c88aaa" flood-opacity=".18"/></filter></defs>
<g filter="url(#s)">
  <ellipse cx="124" cy="238" rx="76" ry="12" fill="#f1dce7"/>
  <path d="M64 93 75 32l44 35 49-35 15 65Z" fill="#fff7ef"/>
  <path d="M79 48l9 36 24-18Z" fill="#ffc7d9"/>
  <path d="M160 48l-8 36-25-18Z" fill="#ffc7d9"/>
  <ellipse cx="123" cy="142" rx="70" ry="67" fill="#fff7ef"/>
  <ellipse cx="123" cy="204" rx="52" ry="43" fill="#fff7ef"/>
  <ellipse cx="98" cy="137" rx="7" ry="9" fill="#504654"/>
  <ellipse cx="147" cy="137" rx="7" ry="9" fill="#504654"/>
  <circle cx="96" cy="134" r="2.5" fill="#fff"/>
  <circle cx="145" cy="134" r="2.5" fill="#fff"/>
  <path d="M116 151q7-7 14 0-2 9-7 9t-7-9Z" fill="#ff9bbb"/>
  <path d="M123 160c-3 8-10 9-16 6M123 160c3 8 10 9 16 6" fill="none" stroke="#765e6e" stroke-width="3.5" stroke-linecap="round"/>
  <path d="M83 154H43M82 164l-37 8M164 154h40M164 164l37 8" stroke="#8a7484" stroke-width="3" stroke-linecap="round"/>
  <circle cx="85" cy="160" r="10" fill="#ffd0df" opacity=".7"/>
  <circle cx="161" cy="160" r="10" fill="#ffd0df" opacity=".7"/>
  <path d="M72 209c-32 2-38 20-24 27 13 7 30-3 38-20" fill="none" stroke="#fff7ef" stroke-width="18" stroke-linecap="round"/>
  <ellipse cx="92" cy="235" rx="31" ry="11" fill="#fff7ef"/>
  <ellipse cx="153" cy="235" rx="31" ry="11" fill="#fff7ef"/>
  <path d="M111 86c-10-9-13-17-7-23 7-6 14-1 19 8 5-9 13-14 20-8 6 6 3 14-7 23Z" fill="#ffafd0"/>
</g>
</svg>